<?xml version="1.0"?>
<svg width="24" height="24" xmlns="http://www.w3.org/2000/svg" xmlns:svg="http://www.w3.org/2000/svg">
 <g class="layer">
  <title>Layer 1</title>
  <path d="m2,2l20,0c1.05,0 2,0.95 2,2l0,14c0,1.05 -0.95,2 -2,2l-20,0c-1.05,0 -2,-0.95 -2,-2l0,-14c0,-1.05 0.95,-2 2,-2m12,3l0,1l8,0l0,-1l-8,0m0,2l0,1l7.5,0l0.5,0l0,-1l-8,0m0,2l0,1l7,0l0,-1l-7,0m-6,3.91c-2,0 -6,1.09 -6,3.09l0,1l12,0l0,-1c0,-2 -4,-3.09 -6,-3.09m0,-7.91a3,3 0 0 0 -3,3a3,3 0 0 0 3,3a3,3 0 0 0 3,-3a3,3 0 0 0 -3,-3z" fill="#ffffff" id="svg_1"/>
 </g>
</svg>